<svg width="19" height="20" viewBox="0 0 19 20" fill="none" xmlns="http://www.w3.org/2000/svg">
<g opacity="0.9">
<path d="M6.81371 3.07298L7.40922 1.53606C7.50965 1.27584 7.68635 1.05201 7.91616 0.893888C8.14599 0.735768 8.4182 0.650726 8.69718 0.649902H9.83279C10.1118 0.650726 10.384 0.735768 10.6138 0.893888C10.8436 1.05201 11.0203 1.27584 11.1207 1.53606L11.7163 3.07298L13.7381 4.23606L15.3723 3.98683C15.6445 3.9499 15.9214 3.99468 16.1681 4.11548C16.4146 4.23629 16.6197 4.42766 16.7572 4.66529L17.3112 5.63452C17.4531 5.87593 17.5186 6.15469 17.4988 6.43402C17.479 6.71336 17.375 6.98013 17.2004 7.19913L16.1894 8.48683V10.813L17.2281 12.1007C17.4027 12.3197 17.5067 12.5865 17.5265 12.8658C17.5463 13.1451 17.4808 13.4239 17.3389 13.6653L16.7849 14.6345C16.6474 14.8721 16.4423 15.0635 16.1958 15.1843C15.9491 15.3051 15.6722 15.3499 15.4 15.313L13.7658 15.0637L11.744 16.2268L11.1484 17.7637C11.048 18.0239 10.8713 18.2478 10.6415 18.4059C10.4117 18.5641 10.1395 18.6491 9.86049 18.6499H8.69718C8.4182 18.6491 8.14599 18.5641 7.91616 18.4059C7.68635 18.2478 7.50965 18.0239 7.40922 17.7637L6.81371 16.2268L4.79176 15.0637L3.15758 15.313C2.88548 15.3499 2.60853 15.3051 2.36193 15.1843C2.11535 15.0635 1.91025 14.8721 1.77269 14.6345L1.21873 13.6653C1.07677 13.4239 1.01138 13.1451 1.03116 12.8658C1.05093 12.5865 1.15497 12.3197 1.32952 12.1007L2.34049 10.813V8.48683L1.30182 7.19913C1.12727 6.98013 1.02323 6.71336 1.00346 6.43402C0.983681 6.15469 1.04908 5.87593 1.19103 5.63452L1.74499 4.66529C1.88255 4.42766 2.08765 4.23629 2.33423 4.11548C2.58083 3.99468 2.85778 3.9499 3.12989 3.98683L4.76407 4.23606L6.81371 3.07298ZM6.49519 9.6499C6.49519 10.1976 6.65764 10.733 6.96198 11.1884C7.26634 11.6438 7.69891 11.9987 8.20503 12.2083C8.71115 12.4179 9.26806 12.4728 9.80534 12.3659C10.3426 12.2591 10.8362 11.9953 11.2235 11.608C11.6109 11.2208 11.8747 10.7273 11.9816 10.1902C12.0884 9.65298 12.0336 9.09618 11.8239 8.59016C11.6143 8.08415 11.2593 7.65165 10.8038 7.34737C10.3483 7.04309 9.81279 6.88067 9.26498 6.88067C8.53039 6.88067 7.82588 7.17242 7.30645 7.69177C6.78701 8.21109 6.49519 8.91546 6.49519 9.6499Z" stroke="#2B2B2B" stroke-width="1.3" stroke-linecap="round" stroke-linejoin="round"/>
</g>
</svg>
