<svg width="20" height="16" viewBox="0 0 20 16" fill="none" xmlns="http://www.w3.org/2000/svg">
<g opacity="0.5">
<path d="M0.738796 1.69923C0.33077 1.69923 0 1.31884 0 0.849615C0 0.380386 0.33077 0 0.738796 0H19.2612C19.6692 0 20 0.380386 20 0.849615C20 1.31884 19.6692 1.69923 19.2612 1.69923H0.738796Z" fill="#2A2A2A"/>
<path d="M0.738796 8.69923C0.33077 8.69923 0 8.31884 0 7.84962C0 7.38039 0.33077 7 0.738796 7H19.2612C19.6692 7 20 7.38039 20 7.84962C20 8.31884 19.6692 8.69923 19.2612 8.69923H0.738796Z" fill="#2A2A2A"/>
<path d="M0.738796 15.6992C0.33077 15.6992 0 15.3188 0 14.8496C0 14.3804 0.33077 14 0.738796 14H19.2612C19.6692 14 20 14.3804 20 14.8496C20 15.3188 19.6692 15.6992 19.2612 15.6992H0.738796Z" fill="#2A2A2A"/>
</g>
</svg>
