<svg width="23" height="23" viewBox="0 0 23 23" fill="none" xmlns="http://www.w3.org/2000/svg">
<path fill-rule="evenodd" clip-rule="evenodd" d="M1 4H22.33V20H1V4Z" fill="#F7FCFF"/>
<path fill-rule="evenodd" clip-rule="evenodd" d="M1 13.7773V15.1107H22.33V13.7773H1ZM1 16.2227V17.556H22.33V16.2227H1ZM1 8.88933V10.2227H22.33V8.88933H1ZM1 18.6667V20H22.33V18.6667H1ZM1 11.3333V12.6667H22.33V11.3333H1ZM1 4V5.33333H22.33V4H1ZM1 6.44467V7.778H22.33V6.44467H1Z" fill="#E31D1C"/>
<path d="M1 4H14.3313V12.6667H1V4Z" fill="#2E42A5"/>
<path fill-rule="evenodd" clip-rule="evenodd" d="M2.14777 5.95934L1.66384 6.29867L1.82715 5.69467L1.39722 5.312H1.95913L2.1471 4.81934L2.36773 5.31267H2.84632L2.47038 5.69467L2.61569 6.29867L2.14777 5.95934ZM4.81402 5.95934L4.33009 6.29867L4.4934 5.69467L4.06347 5.312H4.62538L4.81335 4.81934L5.03398 5.31267H5.51257L5.13663 5.69467L5.28194 6.29867L4.81402 5.95934ZM6.99634 6.29867L7.48027 5.95867L7.9482 6.29867L7.80288 5.69467L8.17883 5.312H7.70023L7.4796 4.81934L7.29163 5.31267H6.72972L7.15965 5.69467L6.99634 6.29867ZM10.1465 5.95867L9.66259 6.29867L9.8259 5.69467L9.39597 5.312H9.95722L10.1459 4.81934L10.3665 5.31267H10.8451L10.4691 5.69467L10.6144 6.29867L10.1465 5.95867ZM1.66384 8.966L2.14777 8.626L2.61569 8.966L2.47038 8.362L2.84632 7.97934H2.36773L2.1471 7.48667L1.95913 7.98H1.39722L1.82715 8.362L1.66384 8.966ZM4.81402 8.626L4.33009 8.966L4.4934 8.362L4.06347 7.97934H4.62538L4.81335 7.48667L5.03398 7.98H5.51257L5.13663 8.362L5.28194 8.966L4.81402 8.626ZM6.99634 8.966L7.48027 8.626L7.9482 8.966L7.80288 8.362L8.17883 7.97934H7.70023L7.4796 7.48667L7.29163 7.98H6.72972L7.15965 8.362L6.99634 8.966ZM10.1465 8.626L9.66259 8.966L9.8259 8.362L9.39597 7.97934H9.95722L10.1459 7.48667L10.3665 7.98H10.8451L10.4691 8.362L10.6144 8.966L10.1465 8.626ZM1.66384 11.6327L2.14777 11.2927L2.61569 11.6327L2.47038 11.0287L2.84632 10.646H2.36773L2.1471 10.1533L1.95913 10.6467H1.39722L1.82715 11.0287L1.66384 11.6327ZM4.81402 11.2927L4.33009 11.6327L4.4934 11.0287L4.06347 10.646H4.62538L4.81335 10.1533L5.03398 10.6467H5.51257L5.13663 11.0287L5.28194 11.6327L4.81402 11.2927ZM6.99634 11.6327L7.48027 11.2927L7.9482 11.6327L7.80288 11.0287L8.17883 10.646H7.70023L7.4796 10.1533L7.29163 10.6467H6.72972L7.15965 11.0287L6.99634 11.6327ZM10.1465 11.2927L9.66259 11.6327L9.8259 11.0287L9.39597 10.646H9.95722L10.1459 10.1533L10.3665 10.6467H10.8451L10.4691 11.0287L10.6144 11.6327L10.1465 11.2927ZM12.3288 6.29934L12.8128 5.95934L13.2807 6.29934L13.1354 5.69534L13.5113 5.31267H13.0327L12.8121 4.82L12.6241 5.31334H12.0622L12.4922 5.69534L12.3288 6.29934ZM12.8128 8.626L12.3288 8.966L12.4922 8.362L12.0622 7.97934H12.6241L12.8121 7.48667L13.0327 7.98H13.5113L13.1354 8.362L13.2807 8.966L12.8128 8.626ZM12.3288 11.6327L12.8128 11.2927L13.2807 11.6327L13.1354 11.0287L13.5113 10.646H13.0327L12.8121 10.1533L12.6241 10.6467H12.0622L12.4922 11.0287L12.3288 11.6327ZM3.48089 7.292L2.99697 7.632L3.16028 7.028L2.73034 6.64534H3.29225L3.48023 6.15267L3.70086 6.646H4.17945L3.80351 7.028L3.94882 7.632L3.48089 7.292ZM5.66322 7.632L6.14714 7.292L6.61507 7.632L6.46976 7.028L6.8457 6.64534H6.36711L6.14648 6.15267L5.95851 6.646H5.39659L5.82653 7.028L5.66322 7.632ZM8.81339 7.292L8.32947 7.632L8.49278 7.028L8.06284 6.64534H8.62409L8.81273 6.15267L9.03336 6.646H9.51195L9.13601 7.028L9.28132 7.632L8.81339 7.292ZM2.99697 10.2987L3.48089 9.95867L3.94882 10.2987L3.80351 9.69467L4.17945 9.312H3.70086L3.48023 8.81934L3.29225 9.31267H2.73034L3.16028 9.69467L2.99697 10.2987ZM6.14714 9.95867L5.66322 10.2987L5.82653 9.69467L5.39659 9.312H5.95851L6.14648 8.81934L6.36711 9.31267H6.8457L6.46976 9.69467L6.61507 10.2987L6.14714 9.95867ZM8.32947 10.2987L8.81339 9.95867L9.28132 10.2987L9.13601 9.69467L9.51195 9.312H9.03336L8.81273 8.81934L8.62409 9.31267H8.06284L8.49278 9.69467L8.32947 10.2987ZM11.4796 7.292L10.9957 7.632L11.159 7.028L10.7291 6.64534H11.2903L11.479 6.15267L11.6996 6.646H12.1782L11.8023 7.028L11.9476 7.632L11.4796 7.292ZM10.9957 10.2987L11.4796 9.95867L11.9476 10.2987L11.8023 9.69467L12.1782 9.312H11.6996L11.479 8.81934L11.2903 9.31267H10.7291L11.159 9.69467L10.9957 10.2987Z" fill="#F7FCFF"/>
</svg>
