<svg width="24" height="24" viewBox="0 0 24 24" fill="none" xmlns="http://www.w3.org/2000/svg">
<path fill-rule="evenodd" clip-rule="evenodd" d="M24 12C24 15.1826 22.7357 18.2348 20.4853 20.4853C18.2348 22.7357 15.1826 24 12 24C8.8174 24 5.76516 22.7357 3.51472 20.4853C1.26428 18.2348 0 15.1826 0 12C0 8.8174 1.26428 5.76516 3.51472 3.51472C5.76516 1.26428 8.8174 0 12 0C15.1826 0 18.2348 1.26428 20.4853 3.51472C22.7357 5.76516 24 8.8174 24 12ZM13.2857 5.57143C13.2857 5.23044 13.1503 4.90341 12.9091 4.66229C12.668 4.42117 12.341 4.28571 12 4.28571C11.659 4.28571 11.332 4.42117 11.0909 4.66229C10.8497 4.90341 10.7143 5.23044 10.7143 5.57143V6.44571C9.95942 6.52693 9.25805 6.87399 8.73557 7.42484C8.21309 7.97569 7.90357 8.69442 7.86235 9.45253C7.82112 10.2106 8.05088 10.9587 8.51055 11.5629C8.97022 12.1672 9.62982 12.5883 10.3714 12.7509L12.8983 13.3046C13.1058 13.3488 13.2895 13.4685 13.4139 13.6403C13.5383 13.8122 13.5945 14.0241 13.5717 14.2351C13.5489 14.446 13.4486 14.641 13.2904 14.7823C13.1321 14.9236 12.927 15.0012 12.7149 15H11.2851C11.1081 14.9999 10.9354 14.945 10.7908 14.8427C10.6462 14.7405 10.5369 14.596 10.4777 14.4291C10.3641 14.1075 10.1273 13.8441 9.81943 13.697C9.5116 13.55 9.15796 13.5312 8.83629 13.6449C8.51462 13.7585 8.25127 13.9953 8.10419 14.3031C7.95711 14.611 7.93834 14.9646 8.052 15.2863C8.46171 16.4417 9.47486 17.316 10.7143 17.5234V18.4286C10.7143 18.7696 10.8497 19.0966 11.0909 19.3377C11.332 19.5788 11.659 19.7143 12 19.7143C12.341 19.7143 12.668 19.5788 12.9091 19.3377C13.1503 19.0966 13.2857 18.7696 13.2857 18.4286V17.5234C14.0704 17.3899 14.7842 16.9878 15.3048 16.3858C15.8255 15.7838 16.1207 15.0195 16.1397 14.2238C16.1588 13.4281 15.9005 12.6506 15.4092 12.0244C14.918 11.3982 14.2242 10.9623 13.4469 10.7914L10.9217 10.2394C10.7715 10.2055 10.639 10.1175 10.5495 9.99228C10.46 9.86702 10.4196 9.7132 10.4361 9.56011C10.4526 9.40703 10.5249 9.26535 10.6391 9.16207C10.7533 9.05879 10.9015 9.0011 11.0554 9H12.7149C12.8921 8.99935 13.0651 9.05398 13.2099 9.15631C13.3546 9.25863 13.4638 9.40354 13.5223 9.57086C13.5786 9.73013 13.6657 9.87676 13.7786 10.0024C13.8916 10.128 14.0281 10.2301 14.1806 10.303C14.333 10.3758 14.4983 10.4179 14.667 10.4268C14.8356 10.4358 15.0044 10.4114 15.1637 10.3551C15.323 10.2989 15.4696 10.2118 15.5952 10.0988C15.7208 9.98586 15.823 9.84928 15.8958 9.69686C15.9686 9.54444 16.0107 9.37917 16.0197 9.21048C16.0286 9.04179 16.0043 8.87299 15.948 8.71371C15.744 8.13731 15.3896 7.62593 14.9215 7.23257C14.4534 6.83922 13.8886 6.5782 13.2857 6.47657V5.57143Z" fill="#EB5757"/>
</svg>
