<svg width="22" height="21" viewBox="0 0 22 21" fill="none" xmlns="http://www.w3.org/2000/svg">
<path d="M6.93764 19.499C7.39301 20.1204 8.26587 20.2549 8.88724 19.7996L20.3493 11.4001C20.9706 10.9448 21.1053 10.0719 20.65 9.45046L19.1331 7.3806C18.0404 7.80155 16.7592 7.45971 16.0338 6.46988C15.3085 5.48004 15.3684 4.15541 16.099 3.2402L14.5822 1.17035C14.1269 0.548973 13.2539 0.414446 12.6326 0.86973L1.17052 9.26926C0.549144 9.72461 0.414551 10.5975 0.8699 11.2189L2.38327 13.284C3.48055 12.8505 4.7735 13.1904 5.50352 14.1866C6.23354 15.1828 6.16814 16.5181 5.42427 17.4338L6.93764 19.499Z" stroke="#2B2B2B" stroke-width="1.2" stroke-linecap="round" stroke-linejoin="round"/>
<path d="M9.28107 3.33887L10.6337 5.18475" stroke="#2B2B2B" stroke-width="1.2" stroke-linecap="round" stroke-linejoin="round"/>
<path d="M12.4568 7.67236L13.8095 9.51824" stroke="#2B2B2B" stroke-width="1.2" stroke-linecap="round" stroke-linejoin="round"/>
<path d="M15.6387 12.0146L16.9914 13.8605" stroke="#2B2B2B" stroke-width="1.2" stroke-linecap="round" stroke-linejoin="round"/>
</svg>
