<svg width="23" height="23" viewBox="0 0 23 23" fill="none" xmlns="http://www.w3.org/2000/svg">
<rect width="23" height="23" fill="white"/>
<path fill-rule="evenodd" clip-rule="evenodd" d="M11.3596 16.5999C14.1764 16.5999 16.4595 14.3161 16.4595 11.4991C16.4595 8.68368 14.1764 6.3999 11.3596 6.3999C8.54271 6.3999 6.25879 8.68368 6.25879 11.4999C6.25879 14.3161 8.54271 16.5999 11.3596 16.5999Z" fill="#3D58DB"/>
<mask id="mask0_2369_16" style="mask-type:luminance" maskUnits="userSpaceOnUse" x="6" y="6" width="11" height="11">
<path fill-rule="evenodd" clip-rule="evenodd" d="M11.3596 16.5999C14.1764 16.5999 16.4595 14.3161 16.4595 11.4991C16.4595 8.68368 14.1764 6.3999 11.3596 6.3999C8.54271 6.3999 6.25879 8.68368 6.25879 11.4999C6.25879 14.3161 8.54271 16.5999 11.3596 16.5999Z" fill="white"/>
</mask>
<g mask="url(#mask0_2369_16)">
<path fill-rule="evenodd" clip-rule="evenodd" d="M16.6377 11.8894C16.6377 11.8894 16.351 9.48554 14.2316 9.35471C12.1121 9.22387 11.5405 11.1185 11.4173 11.6194C11.2942 12.1212 10.9855 13.4602 8.75262 13.4602C6.52146 13.4602 6.32007 10.0569 6.32007 10.0569V6.04248H16.6377V11.8894Z" fill="#E31D1C"/>
</g>
<path fill-rule="evenodd" clip-rule="evenodd" d="M3.41878 3L4.15557 3.68483L0.737604 7.78058L0 7.09575L3.41878 3ZM4.63441 4.1083L5.37201 4.7923L2.07658 8.8285L1.33897 8.1445L4.63441 4.1083ZM6.58282 5.91384L5.84521 5.22901L2.5401 9.29581L3.27851 9.98064L6.58282 5.91384ZM19.1358 3L18.3974 3.68235L19.6775 5.22239L20.4151 4.54087L19.1358 3ZM21.4099 5.83444L20.6723 6.51596L21.9524 8.05683L22.69 7.3753L21.4099 5.83444ZM15.9629 5.9006L16.7005 5.21908L17.9798 6.75995L17.2422 7.4423L15.9629 5.9006ZM18.9754 8.05352L18.2378 8.73504L19.5171 10.2759L20.2547 9.59439L18.9754 8.05352ZM17.2261 4.75839L17.9645 4.07687L21.526 8.52661L20.7883 9.20896L17.2261 4.75839ZM20.341 13.5032L19.5969 12.8192L18.3071 14.3659L19.0504 15.0499L20.341 13.5032ZM18.1709 16.2252L17.4276 15.5403L16.137 17.087L16.8811 17.7718L18.1709 16.2252ZM21.9459 14.9837L22.69 15.6677L21.4002 17.2144L20.6561 16.5304L21.9459 14.9837ZM20.6271 18.4533L19.8831 17.7685L18.5925 19.3152L19.3365 20L20.6271 18.4533ZM18.657 16.5924L19.401 17.2772L18.0548 18.9289L17.3099 18.2441L18.657 16.5924ZM21.6114 14.5247L20.8674 13.8407L19.5203 15.4924L20.2644 16.1764L21.6114 14.5247ZM2.42805 13.9052L3.16646 13.222L6.45867 17.0928L5.72107 17.776L2.42805 13.9052ZM3.19628 17.2905L3.93389 16.6081L5.32526 18.1763L4.58766 18.8586L3.19628 17.2905ZM0.737604 15.3948L0 16.0771L3.30995 20L4.04755 19.3176L0.737604 15.3948ZM1.26239 14.949L2.0008 14.2666L3.20515 15.7165L2.46755 16.3989L1.26159 14.9481L1.26239 14.949Z" fill="#272727"/>
</svg>
