<svg width="11" height="11" viewBox="0 0 11 11" fill="none" xmlns="http://www.w3.org/2000/svg">
<path d="M9.60385 0.930769H8.67308V0.465385C8.67308 0.341955 8.62405 0.22359 8.53679 0.136291C8.44953 0.0490316 8.33112 0 8.20769 0C8.08426 0 7.9659 0.0490316 7.87864 0.136291C7.79138 0.22359 7.74231 0.341955 7.74231 0.465385V0.930769H3.25769V0.465385C3.25769 0.341955 3.20866 0.22359 3.1214 0.136291C3.0341 0.0490316 2.91574 0 2.79231 0C2.66888 0 2.55051 0.0490316 2.46321 0.136291C2.37595 0.22359 2.32692 0.341955 2.32692 0.465385V0.930769H1.39615C1.02586 0.930769 0.670771 1.07786 0.408913 1.33968C0.147095 1.60154 0 1.95663 0 2.32692V9.60385C0 9.9741 0.147095 10.3292 0.408913 10.5911C0.670771 10.8529 1.02586 11 1.39615 11H9.60385C9.9741 11 10.3292 10.8529 10.5911 10.5911C10.8529 10.3292 11 9.9741 11 9.60385V2.32692C11 1.95663 10.8529 1.60154 10.5911 1.33968C10.3292 1.07786 9.9741 0.930769 9.60385 0.930769ZM10.0692 9.60385C10.0692 9.72728 10.0202 9.84568 9.93294 9.93294C9.84568 10.0202 9.72728 10.0692 9.60385 10.0692H1.39615C1.27272 10.0692 1.15436 10.0202 1.06706 9.93294C0.979801 9.84568 0.930769 9.72728 0.930769 9.60385V5.07692H10.0692V9.60385ZM10.0692 4.14615H0.930769V2.32692C0.930769 2.20349 0.979801 2.08513 1.06706 1.99783C1.15436 1.91057 1.27272 1.86154 1.39615 1.86154H2.32692V2.32692C2.32692 2.45035 2.37595 2.56872 2.46321 2.65602C2.55051 2.74328 2.66888 2.79231 2.79231 2.79231C2.91574 2.79231 3.0341 2.74328 3.1214 2.65602C3.20866 2.56872 3.25769 2.45035 3.25769 2.32692V1.86154H7.74231V2.32692C7.74231 2.45035 7.79138 2.56872 7.87864 2.65602C7.9659 2.74328 8.08426 2.79231 8.20769 2.79231C8.33112 2.79231 8.44953 2.74328 8.53679 2.65602C8.62405 2.56872 8.67308 2.45035 8.67308 2.32692V1.86154H9.60385C9.72728 1.86154 9.84568 1.91057 9.93294 1.99783C10.0202 2.08513 10.0692 2.20349 10.0692 2.32692V4.14615Z" fill="#2B2B2B"/>
</svg>
