<svg width="18" height="17" viewBox="0 0 18 17" fill="none" xmlns="http://www.w3.org/2000/svg">
<path d="M12.1785 13.0323V14.7169C12.1785 15.0201 12.0581 15.3109 11.8438 15.5252C11.6295 15.7395 11.3388 15.86 11.0357 15.86H1.89285C1.58974 15.86 1.29906 15.7395 1.08473 15.5252C0.870407 15.3109 0.75 15.0201 0.75 14.7169V2.14308C0.75 1.83991 0.870407 1.54917 1.08473 1.3348C1.29906 1.12043 1.58974 1 1.89285 1H11.0357C11.3388 1 11.6295 1.12043 11.8438 1.3348C12.0581 1.54917 12.1785 1.83991 12.1785 2.14308V3.83054" stroke="#289AEB" stroke-width="1.5" stroke-linecap="round" stroke-linejoin="round"/>
<path d="M7.75 8.43018H16.75" stroke="#289AEB" stroke-width="1.5" stroke-linecap="round" stroke-linejoin="round"/>
<path d="M14.4641 6.14404L16.7498 8.4302L14.4641 10.7164" stroke="#289AEB" stroke-width="1.5" stroke-linecap="round" stroke-linejoin="round"/>
</svg>
