<svg width="23" height="28" viewBox="0 0 23 28" fill="none" xmlns="http://www.w3.org/2000/svg">
<path d="M11.0888 2.85018e-06C8.5636 -0.0018076 6.11352 0.858938 4.1443 2.4397C2.17508 4.02046 0.804853 6.22641 0.260519 8.69225C-0.283815 11.1581 0.0304023 13.7359 1.15114 15.9987C2.27187 18.2616 4.13189 20.0738 6.42318 21.1353C7.05136 21.4257 7.55575 21.9301 7.8462 22.5583L10.0274 27.3172C10.1202 27.5208 10.2696 27.6935 10.4578 27.8146C10.646 27.9356 10.865 28 11.0888 28C11.3126 28 11.5316 27.9356 11.7198 27.8146C11.908 27.6935 12.0574 27.5208 12.1502 27.3172L14.3314 22.5583C14.6218 21.9301 15.1262 21.4257 15.7544 21.1353C18.0457 20.0738 19.9057 18.2616 21.0265 15.9987C22.1472 13.7359 22.4614 11.1581 21.9171 8.69225C21.3727 6.22641 20.0025 4.02046 18.0333 2.4397C16.0641 0.858938 13.614 -0.0018076 11.0888 2.85018e-06ZM11.0888 18.0793C9.70464 18.0793 8.35157 17.6688 7.20068 16.8998C6.0498 16.1308 5.15279 15.0378 4.6231 13.759C4.0934 12.4802 3.95481 11.0731 4.22485 9.71552C4.49488 8.35796 5.16142 7.11096 6.14016 6.13221C7.11891 5.15346 8.36591 4.48693 9.72348 4.21689C11.081 3.94686 12.4882 4.08545 13.767 4.61514C15.0458 5.14484 16.1388 6.04184 16.9078 7.19273C17.6768 8.34361 18.0872 9.69669 18.0872 11.0808C18.0872 12.9369 17.3499 14.717 16.0374 16.0295C14.725 17.3419 12.9449 18.0793 11.0888 18.0793Z" fill="#289AEB"/>
<path d="M13.2699 8.3514L10.2956 12.3288C10.2686 12.3624 10.235 12.3901 10.1969 12.4101C10.1588 12.4302 10.1169 12.4422 10.074 12.4455C10.0324 12.4474 9.99099 12.44 9.95265 12.4238C9.91431 12.4077 9.88006 12.3832 9.85237 12.3522L8.56933 11.0808C8.34619 10.8897 8.05917 10.7898 7.76561 10.8012C7.47206 10.8125 7.19359 10.9342 6.98586 11.1419C6.77813 11.3497 6.65643 11.6281 6.6451 11.9217C6.63376 12.2153 6.73361 12.5023 6.9247 12.7254L8.6743 14.475C8.86012 14.6677 9.08302 14.8208 9.32959 14.9251C9.57616 15.0293 9.84128 15.0825 10.109 15.0816C10.4277 15.0825 10.7422 15.0092 11.0277 14.8674C11.3131 14.7257 11.5617 14.5195 11.7536 14.2651L15.1362 9.73942C15.304 9.49622 15.3732 9.1984 15.3299 8.90612C15.2866 8.61384 15.134 8.34889 14.9029 8.16478C14.6612 7.97406 14.3539 7.88665 14.048 7.92161C13.7421 7.95657 13.4624 8.11106 13.2699 8.3514Z" fill="#289AEB"/>
</svg>
