<svg width="19" height="20" viewBox="0 0 19 20" fill="none" xmlns="http://www.w3.org/2000/svg">
<g opacity="0.9">
<path d="M15.1364 0.649902H2.86364C2.11053 0.649902 1.5 1.26982 1.5 2.03452V17.2653C1.5 18.03 2.11053 18.6499 2.86364 18.6499H15.1364C15.8895 18.6499 16.5 18.03 16.5 17.2653V2.03452C16.5 1.26982 15.8895 0.649902 15.1364 0.649902Z" stroke="#2B2B2B" stroke-width="1.3" stroke-linecap="round" stroke-linejoin="round"/>
<path d="M8.99997 12.4195C11.2593 12.4195 13.0909 10.5598 13.0909 8.26566C13.0909 5.97156 11.2593 4.11182 8.99997 4.11182C6.74063 4.11182 4.90906 5.97156 4.90906 8.26566C4.90906 10.5598 6.74063 12.4195 8.99997 12.4195Z" stroke="#2B2B2B" stroke-width="1.3" stroke-linecap="round" stroke-linejoin="round"/>
<path d="M4.90906 8.26611H13.0909" stroke="#2B2B2B" stroke-width="1.3" stroke-linecap="round" stroke-linejoin="round"/>
<path d="M9 12.4195V4.11182" stroke="#2B2B2B" stroke-width="1.3" stroke-linecap="round" stroke-linejoin="round"/>
</g>
</svg>
