<svg width="24" height="24" viewBox="0 0 24 24" fill="none" xmlns="http://www.w3.org/2000/svg">
<path fill-rule="evenodd" clip-rule="evenodd" d="M2.22997 1.99588L0.391577 2.62142C0.262909 2.6733 0.155001 2.76654 0.0851765 2.88644C0.0151825 3.00636 -0.0127792 3.14614 0.00540543 3.28376L1.66006 8.38006C1.76848 8.68666 1.99356 8.93798 2.28624 9.07926C2.57891 9.22055 2.91551 9.24037 3.22276 9.13439L7.91094 7.60733H8.22348L7.74547 9.9071C7.72715 10.0222 7.73868 10.1401 7.77894 10.2495C7.81921 10.3589 7.88687 10.4561 7.97544 10.5318C8.064 10.6075 8.17052 10.6592 8.28478 10.6819C8.39903 10.7046 8.51718 10.6975 8.62794 10.6614L10.7974 9.9623C10.9036 9.92897 10.9998 9.86935 11.0769 9.78895C11.1541 9.70855 11.2097 9.60997 11.2386 9.50235L12.1395 6.41144L12.6175 6.24587L17.4159 4.70041C17.5869 4.65735 17.7468 4.57858 17.8852 4.46931C18.0235 4.36002 18.1373 4.22269 18.2189 4.06633C18.3005 3.90996 18.3481 3.73809 18.3586 3.562C18.3692 3.38591 18.3424 3.20957 18.28 3.04457C18.0537 2.40855 17.6898 1.83045 17.2142 1.35162C16.7386 0.872788 16.1631 0.505069 15.5289 0.274772C14.8948 0.0444756 14.2176 -0.0427052 13.5458 0.0194675C12.874 0.0816402 12.2243 0.291629 11.6431 0.634411L4.28915 4.31406L2.94707 2.23505C2.87004 2.12232 2.75819 2.03793 2.62866 1.99473C2.49931 1.95155 2.35915 1.95195 2.22997 1.99588ZM24 14.2846C24 10.7875 22.1536 7.72187 19.383 6.01091C19.3282 6.06034 19.2717 6.10805 19.2136 6.15394C18.8605 6.4328 18.4557 6.63847 18.023 6.7593L16.1048 7.37709C19.1672 8.17988 21.4267 10.9682 21.4267 14.2846C21.4267 15.0978 21.2908 15.8792 21.0406 16.6074H18.1149C17.8176 16.6074 17.5231 16.5488 17.2483 16.4349C16.9736 16.321 16.724 16.1541 16.5137 15.9437C16.3034 15.7332 16.1366 15.4834 16.0228 15.2085C15.909 14.9335 15.8504 14.6389 15.8504 14.3413V12.4684C15.8605 12.1646 15.8093 11.8619 15.7 11.5782C15.5908 11.2946 15.4255 11.0358 15.2143 10.8174C15.003 10.599 14.7499 10.4253 14.4702 10.3068C14.1905 10.1883 13.8897 10.1272 13.586 10.1274C13.4884 10.1274 13.3915 10.1211 13.2958 10.1087C13.1697 10.5461 12.9392 10.9464 12.6239 11.2751C12.2995 11.6133 11.8957 11.8648 11.4494 12.0067L9.29217 12.7019L9.28764 12.7034C8.82905 12.852 8.34003 12.8808 7.86716 12.7868C7.39274 12.6925 6.95043 12.4779 6.58268 12.1635C6.21487 11.8492 5.93386 11.4455 5.76676 10.9913C5.71959 10.8632 5.68184 10.7321 5.65371 10.5994L5.25398 10.7296C4.82115 11.8306 4.58337 13.0298 4.58337 14.2846C4.58337 19.6503 8.93 24 14.2917 24C19.6535 24 24 19.6503 24 14.2846ZM13.7156 21.4018C11.4269 21.2188 9.44262 19.9549 8.27278 18.1205L8.44346 17.9953C9.03437 17.6896 9.68831 17.5259 10.3534 17.5174H12.8773C13.3944 17.5644 13.8752 17.8032 14.2253 18.1869C14.5755 18.5704 14.7696 19.0712 14.7696 19.5909C14.7696 20.1104 14.5755 20.6112 14.2253 20.9949C14.0766 21.1578 13.9043 21.2947 13.7156 21.4018Z" fill="#7C5FF6"/>
</svg>
