<svg width="16" height="16" viewBox="0 0 16 16" fill="none" xmlns="http://www.w3.org/2000/svg">
<path opacity="0.35" d="M15.7753 14.6511L12.8091 11.7066C13.9605 10.2699 14.5181 8.44631 14.3672 6.61084C14.2163 4.77537 13.3685 3.06747 11.998 1.83831C10.6275 0.609212 8.83849 -0.0476809 6.9989 0.00269744C5.15923 0.0530758 3.40882 0.806913 2.10753 2.10919C0.806234 3.41147 0.0530356 5.16321 0.0026954 7.0042C-0.0476448 8.84519 0.608751 10.6356 1.83692 12.0071C3.06508 13.3787 4.77168 14.2272 6.60584 14.3781C8.43992 14.5291 10.2621 13.9711 11.6977 12.8188L14.64 15.7633C14.7144 15.8382 14.8028 15.8978 14.9002 15.9385C14.9976 15.9791 15.1021 16 15.2077 16C15.3133 16 15.4177 15.9791 15.5152 15.9385C15.6126 15.8978 15.701 15.8382 15.7753 15.7633C15.9194 15.6141 16 15.4147 16 15.2072C16 14.9998 15.9194 14.8002 15.7753 14.6511ZM7.21243 12.8188C6.10549 12.8188 5.02345 12.4903 4.10304 11.8749C3.1827 11.2595 2.46535 10.3847 2.04175 9.36129C1.61814 8.33786 1.50732 7.21163 1.72331 6.12523C1.93923 5.03876 2.47229 4.04073 3.25495 3.25748C4.03767 2.47416 5.03488 1.9407 6.12053 1.72462C7.20618 1.50847 8.33155 1.61943 9.35421 2.04336C10.3769 2.46722 11.2509 3.18511 11.8659 4.10622C12.4809 5.02726 12.8091 6.11012 12.8091 7.2179C12.8091 8.70338 12.2194 10.128 11.1699 11.1784C10.1203 12.2287 8.69672 12.8188 7.21243 12.8188Z" fill="#2B2B2B"/>
</svg>
