<svg width="21" height="21" viewBox="0 0 21 21" fill="none" xmlns="http://www.w3.org/2000/svg">
<g opacity="0.9">
<path d="M15.2753 12.3004C15.2752 13.5288 14.9666 14.7374 14.3778 15.815C13.789 16.8926 12.939 17.8046 11.906 18.4671C10.873 19.1294 9.6902 19.521 8.46649 19.6055C7.24277 19.6902 6.01745 19.4652 4.90332 18.9513C3.7892 18.4373 2.82207 17.6511 2.09094 16.6647C1.35982 15.6785 0.888195 14.5237 0.719489 13.3071C0.550784 12.0904 0.690415 10.8507 1.12553 9.70224C1.56065 8.55375 2.27726 7.53331 3.20942 6.73486" stroke="#2B2B2B" stroke-width="1.3" stroke-linecap="round" stroke-linejoin="round"/>
<path d="M7.64094 9.59131C7.48638 9.91089 7.40637 10.2615 7.40694 10.6165C7.40499 10.9114 7.46155 11.2036 7.57332 11.4764C7.68508 11.7491 7.84982 11.9969 8.058 12.2054C8.26618 12.4139 8.51364 12.5789 8.78599 12.6908C9.05836 12.8027 9.35022 12.8593 9.64461 12.8574C9.94329 12.8574 10.2297 12.9762 10.4409 13.1877C10.6521 13.3992 10.7708 13.6861 10.7708 13.9851V19.0673" stroke="#2B2B2B" stroke-width="1.3" stroke-linecap="round" stroke-linejoin="round"/>
<path d="M0.752289 13.4285H3.45798C3.75863 13.4207 4.05782 13.4732 4.33786 13.5831C4.61791 13.6929 4.87316 13.8578 5.08854 14.068C5.30392 14.2783 5.47507 14.5295 5.59189 14.8071C5.70874 15.0846 5.76888 15.3828 5.76877 15.6841V19.2724" stroke="#2B2B2B" stroke-width="1.3" stroke-linecap="round" stroke-linejoin="round"/>
<path d="M19.3117 2.73672L17.8492 2.23875C17.7465 2.20378 17.6351 2.20346 17.5321 2.23785C17.429 2.27222 17.3401 2.33942 17.2788 2.42915L16.2112 4.08417L10.3611 1.15493C9.89875 0.882058 9.38189 0.714893 8.84748 0.6654C8.31308 0.615906 7.77436 0.685308 7.26988 0.868638C6.76539 1.05197 6.30759 1.34469 5.92926 1.72587C5.55092 2.10706 5.26138 2.56727 5.08138 3.07358C5.03177 3.20493 5.01046 3.3453 5.01884 3.48548C5.02722 3.62565 5.06511 3.76248 5.13002 3.88696C5.19494 4.01143 5.2854 4.12075 5.39548 4.20775C5.50557 4.29475 5.63278 4.35745 5.76876 4.39173L9.58597 5.62201L9.96623 5.75382L10.6829 8.21437C10.7059 8.30004 10.7501 8.37851 10.8115 8.44253C10.8728 8.50654 10.9493 8.55399 11.0339 8.58053L12.7597 9.13708C12.8478 9.16582 12.9418 9.17143 13.0327 9.15335C13.1236 9.13528 13.2083 9.09414 13.2787 9.03387C13.3492 8.9736 13.403 8.89623 13.4351 8.80915C13.4671 8.72208 13.4763 8.62823 13.4617 8.53659L13.0814 6.70582H13.33L17.0594 7.92145C17.304 8.00581 17.5718 7.99005 17.8046 7.87757C18.0374 7.76509 18.2164 7.56502 18.3026 7.32096L19.6189 3.26398C19.6333 3.15441 19.6111 3.04315 19.5555 2.9477C19.4998 2.85224 19.4141 2.77801 19.3117 2.73672Z" stroke="#2B2B2B" stroke-width="1.3" stroke-linecap="round" stroke-linejoin="round"/>
</g>
</svg>
