<svg width="23" height="23" viewBox="0 0 23 23" fill="none" xmlns="http://www.w3.org/2000/svg">
<path d="M20.1916 11.4998C20.1916 16.3 16.3003 20.1913 11.5001 20.1913C6.69992 20.1913 2.80859 16.3 2.80859 11.4998C2.80859 6.69967 6.69992 2.80835 11.5001 2.80835C16.3003 2.80835 20.1916 6.69967 20.1916 11.4998Z" fill="#79EE8D"/>
<path fill-rule="evenodd" clip-rule="evenodd" d="M11.5 19.383C8.9042 19.383 6.60144 18.1283 5.16508 16.1923C5.49164 16.1783 5.7825 16.1586 6.02602 16.1384C6.62003 16.0892 7.24149 15.8388 7.62675 15.2931C8.0897 14.6372 8.37207 13.88 8.52969 13.3556C8.68848 12.8273 8.63092 12.2895 8.49541 11.8142C8.38942 11.4423 8.26871 10.9638 8.19905 10.5094C8.12621 10.0344 8.12204 9.66036 8.19024 9.45479C8.21272 9.38712 8.28379 9.29196 8.46085 9.18629C8.63363 9.08316 8.86454 8.99604 9.12447 8.92566C9.64277 8.78535 10.1989 8.7317 10.4447 8.71395C10.5331 8.70757 10.6511 8.69823 10.7743 8.6671C11.1172 8.58039 11.9302 8.30125 12.7468 7.48231C13.1728 7.05497 13.3666 6.48105 13.3859 5.92067C13.4034 5.41019 13.4093 4.67535 13.3563 3.83683C16.8142 4.67147 19.383 7.78574 19.383 11.5C19.383 11.6634 19.378 11.8255 19.3682 11.9864C17.6226 11.6584 15.9506 11.4339 14.8923 11.3066C14.0871 11.2098 13.1566 11.3503 12.5235 12.0221C12.2999 12.2595 12.1118 12.5077 11.954 12.753C11.1103 14.0648 11.8357 15.5833 12.9109 16.4125L13.8079 17.1042C14.0242 17.271 14.1583 17.5318 14.1744 17.8173C14.1905 18.1017 14.2161 18.4678 14.2566 18.8876C13.3985 19.2079 12.4697 19.383 11.5 19.383ZM11.5 2C6.25329 2 2 6.25329 2 11.5C2 16.7467 6.25329 21 11.5 21C16.7467 21 21 16.7467 21 11.5C21 6.25329 16.7467 2 11.5 2Z" fill="#1351C5"/>
</svg>
