<svg width="20" height="20" viewBox="0 0 20 20" fill="none" xmlns="http://www.w3.org/2000/svg">
<g opacity="0.9">
<path d="M9.64999 18.6499C14.6206 18.6499 18.65 14.6205 18.65 9.6499C18.65 4.67934 14.6206 0.649902 9.64999 0.649902C4.67943 0.649902 0.649994 4.67934 0.649994 9.6499C0.649994 14.6205 4.67943 18.6499 9.64999 18.6499Z" stroke="#2B2B2B" stroke-width="1.3" stroke-linecap="round" stroke-linejoin="round"/>
<path d="M5.08069 11.0342C5.773 13.5265 8.54223 15.0496 11.0345 14.3573C12.5576 13.8034 13.8038 12.5573 14.2192 11.0342" stroke="#2B2B2B" stroke-width="1.3" stroke-linecap="round" stroke-linejoin="round"/>
<path d="M6.53463 7.57317C6.34346 7.57317 6.18848 7.41819 6.18848 7.22701C6.18848 7.03584 6.34346 6.88086 6.53463 6.88086" stroke="#2B2B2B" stroke-width="1.3" stroke-linecap="round" stroke-linejoin="round"/>
<path d="M6.53464 7.57317C6.72581 7.57317 6.88079 7.41819 6.88079 7.22701C6.88079 7.03584 6.72581 6.88086 6.53464 6.88086" stroke="#2B2B2B" stroke-width="1.3" stroke-linecap="round" stroke-linejoin="round"/>
<path d="M12.7653 7.57317C12.5742 7.57317 12.4192 7.41819 12.4192 7.22701C12.4192 7.03584 12.5742 6.88086 12.7653 6.88086" stroke="#2B2B2B" stroke-width="1.3" stroke-linecap="round" stroke-linejoin="round"/>
<path d="M12.7654 7.57317C12.9566 7.57317 13.1115 7.41819 13.1115 7.22701C13.1115 7.03584 12.9566 6.88086 12.7654 6.88086" stroke="#2B2B2B" stroke-width="1.3" stroke-linecap="round" stroke-linejoin="round"/>
</g>
</svg>
