<svg width="16" height="14" viewBox="0 0 16 14" fill="none" xmlns="http://www.w3.org/2000/svg">
<path d="M14.75 4.14884C14.75 3.84836 14.6365 3.5602 14.4346 3.34773C14.2326 3.13526 13.9587 3.0159 13.6731 3.0159H11.5192L9.90385 0.75H5.59615L3.98077 3.0159H1.82692C1.5413 3.0159 1.26739 3.13526 1.06542 3.34773C0.863461 3.5602 0.75 3.84836 0.75 4.14884V11.8671C0.75 12.1675 0.863461 12.4557 1.06542 12.6682C1.26739 12.8806 1.5413 13 1.82692 13H13.6731C13.9587 13 14.2326 12.8806 14.4346 12.6682C14.6365 12.4557 14.75 12.1675 14.75 11.8671V4.14884Z" stroke="white" stroke-width="1.5" stroke-linecap="round" stroke-linejoin="round"/>
<path d="M7.74998 9.9725C9.08821 9.9725 10.1731 8.88735 10.1731 7.54875C10.1731 6.21015 9.08821 5.125 7.74998 5.125C6.41175 5.125 5.3269 6.21015 5.3269 7.54875C5.3269 8.88735 6.41175 9.9725 7.74998 9.9725Z" stroke="white" stroke-width="1.5" stroke-linecap="round" stroke-linejoin="round"/>
</svg>
