<svg width="19" height="19" viewBox="0 0 19 19" fill="none" xmlns="http://www.w3.org/2000/svg">
<g opacity="0.9">
<path d="M4.17297 9.25046V5.91252C4.18289 5.25639 4.32217 4.60868 4.58284 4.00647C4.84351 3.40427 5.22045 2.85942 5.69205 2.40314C6.16365 1.94687 6.72066 1.58813 7.33115 1.34749C7.94162 1.10685 8.5936 0.989039 9.24969 1.0008C9.90578 0.989039 10.5578 1.10685 11.1682 1.34749C11.7787 1.58813 12.3357 1.94687 12.8073 2.40314C13.2789 2.85942 13.6559 3.40427 13.9166 4.00647C14.1771 4.60868 14.3165 5.25639 14.3264 5.91252V9.25046" stroke="#2B2B2B" stroke-width="1.3" stroke-linecap="round" stroke-linejoin="round"/>
<path d="M2.26918 7.34668H3.53836C3.70666 7.34668 3.86808 7.41354 3.98707 7.53255C4.10609 7.65155 4.17295 7.81296 4.17295 7.98127V11.7888C4.17295 11.9571 4.10609 12.1185 3.98707 12.2375C3.86808 12.3565 3.70666 12.4234 3.53836 12.4234H2.26918C1.93257 12.4234 1.60975 12.2897 1.37173 12.0517C1.13372 11.8136 1 11.4908 1 11.1542V8.61586C1 8.27925 1.13372 7.95643 1.37173 7.71841C1.60975 7.4804 1.93257 7.34668 2.26918 7.34668Z" stroke="#2B2B2B" stroke-width="1.3" stroke-linecap="round" stroke-linejoin="round"/>
<path d="M16.2302 12.4234H14.961C14.7927 12.4234 14.6313 12.3565 14.5122 12.2375C14.3933 12.1185 14.3264 11.9571 14.3264 11.7888V7.98127C14.3264 7.81296 14.3933 7.65155 14.5122 7.53255C14.6313 7.41354 14.7927 7.34668 14.961 7.34668H16.2302C16.5668 7.34668 16.8896 7.4804 17.1276 7.71841C17.3656 7.95643 17.4994 8.27925 17.4994 8.61586V11.1542C17.4994 11.4908 17.3656 11.8136 17.1276 12.0517C16.8896 12.2897 16.5668 12.4234 16.2302 12.4234Z" stroke="#2B2B2B" stroke-width="1.3" stroke-linecap="round" stroke-linejoin="round"/>
<path d="M11.7881 15.9131C12.4613 15.9131 13.1069 15.6456 13.5829 15.1696C14.059 14.6935 14.3264 14.0479 14.3264 13.3747V10.519" stroke="#2B2B2B" stroke-width="1.3" stroke-linecap="round" stroke-linejoin="round"/>
<path d="M11.788 15.9136C11.788 16.3344 11.6209 16.738 11.3233 17.0354C11.0258 17.3329 10.6223 17.5001 10.2015 17.5001H8.29778C7.87702 17.5001 7.4735 17.3329 7.17598 17.0354C6.87845 16.738 6.7113 16.3344 6.7113 15.9136C6.7113 15.4929 6.87845 15.0893 7.17598 14.7918C7.4735 14.4943 7.87702 14.3271 8.29778 14.3271H10.2015C10.6223 14.3271 11.0258 14.4943 11.3233 14.7918C11.6209 15.0893 11.788 15.4929 11.788 15.9136Z" stroke="#2B2B2B" stroke-width="1.3" stroke-linecap="round" stroke-linejoin="round"/>
</g>
</svg>
