<svg width="9" height="9" viewBox="0 0 9 9" fill="none" xmlns="http://www.w3.org/2000/svg">
<path d="M3.4003 0.682479C3.70496 -0.227584 4.99219 -0.227583 5.29685 0.682481L5.65452 1.7509C5.79101 2.15861 6.17284 2.43345 6.60279 2.43345H7.69524C8.67118 2.43345 9.06912 3.68826 8.27154 4.25069L7.4396 4.83734C7.07861 5.0919 6.9274 5.55316 7.06762 5.97204L7.39743 6.95723C7.70411 7.87331 6.66236 8.64865 5.87286 8.09192L4.92487 7.42342C4.57931 7.17975 4.11784 7.17975 3.77228 7.42342L2.82428 8.09192C2.03478 8.64865 0.993036 7.87331 1.29971 6.95723L1.62952 5.97204C1.76975 5.55316 1.61854 5.0919 1.25754 4.83734L0.425607 4.25069C-0.371973 3.68826 0.0259604 2.43345 1.0019 2.43345H2.09435C2.52431 2.43345 2.90614 2.15861 3.04262 1.7509L3.4003 0.682479Z" fill="white"/>
</svg>
