<svg width="22" height="23" viewBox="0 0 22 23" fill="none" xmlns="http://www.w3.org/2000/svg">
<path d="M2.5 19C2.5 16.6 4.5 16.5 5.5 16.5H17C17.3871 16.5 17.718 16.45 18 16.3646M2.5 19C2.5 21.4 4 21.5 5.5 21.5H18M2.5 19C2.5 14.3333 2.5 4.6 2.5 3C2.5 1.5 3.5 1 4.5 1H17.5C18.3333 1 19.5 1.4 19.5 3V14.5C19.5 15.0376 19.1748 16.0088 18 16.3646M19.5 21.5H18M18 21.5V16.3646" stroke="#333333" stroke-width="1.7" stroke-linecap="round"/>
<path d="M10.778 4.45923C10.8528 4.2289 11.1777 4.2289 11.2526 4.45923L11.7614 6.02368C11.9957 6.7444 12.6675 7.23256 13.4254 7.23267H15.0709C15.3128 7.23303 15.4132 7.54255 15.2174 7.68481L13.8864 8.65161C13.2734 9.09718 13.0166 9.88687 13.2506 10.6077L13.7594 12.1721C13.8342 12.4024 13.5706 12.5938 13.3746 12.4514L12.0436 11.4846C11.4304 11.0394 10.6001 11.0394 9.98694 11.4846L8.65588 12.4514C8.45995 12.5938 8.19628 12.4024 8.27112 12.1721L8.77991 10.6077C9.01389 9.88687 8.75716 9.09718 8.14417 8.65161L6.81311 7.68481C6.61729 7.54255 6.71772 7.23303 6.95959 7.23267H8.6051C9.36299 7.23256 10.0348 6.7444 10.2692 6.02368L10.778 4.45923Z" stroke="#333333" stroke-width="1.5"/>
</svg>
