<svg width="22" height="22" viewBox="0 0 22 22" fill="none" xmlns="http://www.w3.org/2000/svg">
<path d="M2.18586 12.8V19.0002C2.18586 19.5002 2.48586 20.5002 3.68586 20.5002C4.13264 20.5002 5.60985 20.5002 7.50329 20.5002M19.1859 12.8C19.1859 14.8 19.1859 18.6002 19.1859 19.0002C19.1859 20.2002 18.1859 20.5002 17.6859 20.5002C16.5895 20.5002 15.1839 20.5002 13.6859 20.5002M7.50329 20.5002V16.5002C7.50329 15.6479 7.88586 14.0002 10.6859 14.0002C13.2484 14.0002 13.7484 15.7002 13.7484 16.5002L13.6859 20.5002M7.50329 20.5002C9.35727 20.5002 11.6103 20.5002 13.6859 20.5002M1.18586 6.00017C1.01919 7.66684 1.44835 11.0002 4.24835 11.0002C7.04835 11.0002 7.56415 7.66684 7.50329 6.00017C7.33663 7.66684 7.76579 11.0001 10.5658 11.0001C13.3658 11.0001 13.8816 7.6668 13.8207 6.00013C13.6541 7.6668 14.0832 11 16.8832 11C19.6831 11 20.199 7.6667 20.1382 5.99997M1.18586 6.00017L20.1382 5.99997M1.18586 6.00017L3.68586 1.5H17.6859L20.1382 5.99997" stroke="#333333" stroke-width="1.7" stroke-linecap="round"/>
</svg>
